<?xml version="1.0" standalone="no"?> <!DOCTYPE svg PUBLIC "-//W3C//DTD SVG 1.0//EN" "http://www.w3.org/TR/2001/REC-SVG-20010904/DTD/svg10.dtd" > <svg xmlns="http://www.w3.org/2000/svg" width="100%" height="100%">
<defs >
<font horiz-adv-x="821" ><font-face
    font-family="LED Calculator"
    units-per-em="2048"
    panose-1="2 2 6 3 5 4 5 2 3 4"
    ascent="1825"
    descent="-443"
    alphabetic="0" />
<missing-glyph horiz-adv-x="1228" d="M1116 1229V1413H932V1229H1116ZM911 1229V1413H727V1229H911ZM1116 1024V1208H932V1024H1116ZM707 1229V1413H522V1229H707ZM1116 819V1004H932V819H1116ZM502 1229V1413H317V1229H502ZM1116 614V799H932V614H1116ZM297
1229V1413H113V1229H297ZM1116 410V594H932V410H1116ZM297 1024V1208H113V1024H297ZM1116 205V389H932V205H1116ZM297 819V1004H113V819H297ZM1116 0V184H932V0H1116ZM297 614V799H113V614H297ZM911 0V184H727V0H911ZM297 410V594H113V410H297ZM707 0V184H522V0H707ZM297
205V389H113V205H297ZM502 0V184H317V0H502ZM297 0V184H113V0H297Z" />
<glyph unicode=" " glyph-name="space" horiz-adv-x="1228" />
<glyph unicode="!" glyph-name="exclam" horiz-adv-x="1228" d="M707 1229V1413H522V1229H707ZM707 1024V1208H522V1024H707ZM707 819V1004H522V819H707ZM707 614V799H522V614H707ZM707 410V594H522V410H707ZM707 0V184H522V0H707Z" />
<glyph unicode="&quot;" glyph-name="quotedbl" horiz-adv-x="1228" d="M911 1229V1413H727V1229H911ZM911 1024V1208H727V1024H911ZM502 1229V1413H317V1229H502ZM911 819V1004H727V819H911ZM502 1024V1208H317V1024H502ZM502 819V1004H317V819H502Z" />
<glyph unicode="#" glyph-name="numbersign" horiz-adv-x="1228" d="M911 1229V1413H727V1229H911ZM911 1024V1208H727V1024H911ZM1116 819V1004H932V819H1116ZM502 1229V1413H317V1229H502ZM911 819V1004H727V819H911ZM502 1024V1208H317V1024H502ZM707 819V1004H522V819H707ZM911
614V799H727V614H911ZM1116 410V594H932V410H1116ZM502 819V1004H317V819H502ZM911 410V594H727V410H911ZM297 819V1004H113V819H297ZM502 614V799H317V614H502ZM707 410V594H522V410H707ZM911 205V389H727V205H911ZM502 410V594H317V410H502ZM911 0V184H727V0H911ZM297
410V594H113V410H297ZM502 205V389H317V205H502ZM502 0V184H317V0H502Z" />
<glyph unicode="$" glyph-name="dollar" horiz-adv-x="1228" d="M1116 1024V1208H932V1024H1116ZM707 1229V1413H522V1229H707ZM911 1024V1208H727V1024H911ZM707 1024V1208H522V1024H707ZM502 1024V1208H317V1024H502ZM707 819V1004H522V819H707ZM911 614V799H727V614H911ZM1116
410V594H932V410H1116ZM707 614V799H522V614H707ZM297 819V1004H113V819H297ZM502 614V799H317V614H502ZM707 410V594H522V410H707ZM911 205V389H727V205H911ZM707 205V389H522V205H707ZM502 205V389H317V205H502ZM707 0V184H522V0H707ZM297 205V389H113V205H297Z"
/>
<glyph unicode="%" glyph-name="percent" horiz-adv-x="1228" d="M1116 1024V1208H932V1024H1116ZM502 1229V1413H317V1229H502ZM911 819V1004H727V819H911ZM297 1229V1413H113V1229H297ZM502 1024V1208H317V1024H502ZM297 1024V1208H113V1024H297ZM707 614V799H522V614H707ZM1116
205V389H932V205H1116ZM911 205V389H727V205H911ZM1116 0V184H932V0H1116ZM502 410V594H317V410H502ZM911 0V184H727V0H911ZM297 205V389H113V205H297Z" />
<glyph unicode="&amp;" glyph-name="ampersand" horiz-adv-x="1228" d="M707 1229V1413H522V1229H707ZM911 1024V1208H727V1024H911ZM502 1229V1413H317V1229H502ZM707 819V1004H522V819H707ZM1116 410V594H932V410H1116ZM297 1024V1208H113V1024H297ZM297 819V1004H113V819H297ZM502
614V799H317V614H502ZM707 410V594H522V410H707ZM911 205V389H727V205H911ZM1116 0V184H932V0H1116ZM297 410V594H113V410H297ZM707 0V184H522V0H707ZM297 205V389H113V205H297ZM502 0V184H317V0H502Z" />
<glyph unicode="&apos;" glyph-name="quotesingle" horiz-adv-x="1228" d="M707 1229V1413H522V1229H707ZM707 1024V1208H522V1024H707ZM707 819V1004H522V819H707Z" />
<glyph unicode="(" glyph-name="parenleft" horiz-adv-x="1228" d="M911 1229V1413H727V1229H911ZM707 1024V1208H522V1024H707ZM502 819V1004H317V819H502ZM502 614V799H317V614H502ZM502 410V594H317V410H502ZM707 205V389H522V205H707ZM911 0V184H727V0H911Z" />
<glyph unicode=")" glyph-name="parenright" horiz-adv-x="1228" d="M502 1229V1413H317V1229H502ZM707 1024V1208H522V1024H707ZM911 819V1004H727V819H911ZM911 614V799H727V614H911ZM911 410V594H727V410H911ZM707 205V389H522V205H707ZM502 0V184H317V0H502Z" />
<glyph unicode="*" glyph-name="asterisk" horiz-adv-x="1228" d="M1116 819V1004H932V819H1116ZM707 1024V1208H522V1024H707ZM707 819V1004H522V819H707ZM911 614V799H727V614H911ZM1116 410V594H932V410H1116ZM707 614V799H522V614H707ZM297 819V1004H113V819H297ZM502
614V799H317V614H502ZM707 410V594H522V410H707ZM707 205V389H522V205H707ZM297 410V594H113V410H297Z" />
<glyph unicode="+" glyph-name="plus" horiz-adv-x="1228" d="M707 1024V1208H522V1024H707ZM1116 614V799H932V614H1116ZM707 819V1004H522V819H707ZM911 614V799H727V614H911ZM707 614V799H522V614H707ZM502 614V799H317V614H502ZM707 410V594H522V410H707ZM297
614V799H113V614H297ZM707 205V389H522V205H707Z" />
<glyph unicode="," glyph-name="comma" horiz-adv-x="1228" d="M707 410V594H522V410H707ZM502 410V594H317V410H502ZM707 205V389H522V205H707ZM502 0V184H317V0H502Z" />
<glyph unicode="-" glyph-name="hyphen" horiz-adv-x="1228" d="M1116 614V799H932V614H1116ZM911 614V799H727V614H911ZM707 614V799H522V614H707ZM502 614V799H317V614H502ZM297 614V799H113V614H297Z" />
<glyph unicode="." glyph-name="period" horiz-adv-x="1228" d="M707 205V389H522V205H707ZM502 205V389H317V205H502ZM707 0V184H522V0H707ZM502 0V184H317V0H502Z" />
<glyph unicode="/" glyph-name="slash" horiz-adv-x="1228" d="M1116 1024V1208H932V1024H1116ZM911 819V1004H727V819H911ZM707 614V799H522V614H707ZM502 410V594H317V410H502ZM297 205V389H113V205H297Z" />
<glyph unicode="0" glyph-name="zero" horiz-adv-x="1228" d="M911 1229V1413H727V1229H911ZM1116 1024V1208H932V1024H1116ZM707 1229V1413H522V1229H707ZM1116 819V1004H932V819H1116ZM502 1229V1413H317V1229H502ZM911 819V1004H727V819H911ZM1116 614V799H932V614H1116ZM1116
410V594H932V410H1116ZM297 1024V1208H113V1024H297ZM707 614V799H522V614H707ZM1116 205V389H932V205H1116ZM297 819V1004H113V819H297ZM297 614V799H113V614H297ZM502 410V594H317V410H502ZM911 0V184H727V0H911ZM297 410V594H113V410H297ZM707 0V184H522V0H707ZM297
205V389H113V205H297ZM502 0V184H317V0H502Z" />
<glyph unicode="1" glyph-name="one" horiz-adv-x="1228" d="M707 1229V1413H522V1229H707ZM707 1024V1208H522V1024H707ZM502 1024V1208H317V1024H502ZM707 819V1004H522V819H707ZM707 614V799H522V614H707ZM707 410V594H522V410H707ZM707 205V389H522V205H707ZM911
0V184H727V0H911ZM707 0V184H522V0H707ZM502 0V184H317V0H502Z" />
<glyph unicode="2" glyph-name="two" horiz-adv-x="1228" d="M911 1229V1413H727V1229H911ZM1116 1024V1208H932V1024H1116ZM707 1229V1413H522V1229H707ZM1116 819V1004H932V819H1116ZM502 1229V1413H317V1229H502ZM911 614V799H727V614H911ZM297 1024V1208H113V1024H297ZM707
410V594H522V410H707ZM1116 0V184H932V0H1116ZM911 0V184H727V0H911ZM502 205V389H317V205H502ZM707 0V184H522V0H707ZM502 0V184H317V0H502ZM297 0V184H113V0H297Z" />
<glyph unicode="3" glyph-name="three" horiz-adv-x="1228" d="M1116 1229V1413H932V1229H1116ZM911 1229V1413H727V1229H911ZM707 1229V1413H522V1229H707ZM911 1024V1208H727V1024H911ZM502 1229V1413H317V1229H502ZM297 1229V1413H113V1229H297ZM707 819V1004H522V819H707ZM911
614V799H727V614H911ZM1116 410V594H932V410H1116ZM1116 205V389H932V205H1116ZM911 0V184H727V0H911ZM707 0V184H522V0H707ZM297 205V389H113V205H297ZM502 0V184H317V0H502Z" />
<glyph unicode="4" glyph-name="four" horiz-adv-x="1228" d="M911 1229V1413H727V1229H911ZM911 1024V1208H727V1024H911ZM707 1024V1208H522V1024H707ZM911 819V1004H727V819H911ZM911 614V799H727V614H911ZM1116 410V594H932V410H1116ZM502 819V1004H317V819H502ZM911
410V594H727V410H911ZM707 410V594H522V410H707ZM911 205V389H727V205H911ZM297 614V799H113V614H297ZM502 410V594H317V410H502ZM911 0V184H727V0H911ZM297 410V594H113V410H297Z" />
<glyph unicode="5" glyph-name="five" horiz-adv-x="1228" d="M1116 1229V1413H932V1229H1116ZM911 1229V1413H727V1229H911ZM707 1229V1413H522V1229H707ZM502 1229V1413H317V1229H502ZM911 819V1004H727V819H911ZM1116 614V799H932V614H1116ZM297 1229V1413H113V1229H297ZM707
819V1004H522V819H707ZM1116 410V594H932V410H1116ZM297 1024V1208H113V1024H297ZM502 819V1004H317V819H502ZM1116 205V389H932V205H1116ZM297 819V1004H113V819H297ZM911 0V184H727V0H911ZM707 0V184H522V0H707ZM297 205V389H113V205H297ZM502 0V184H317V0H502Z"
/>
<glyph unicode="6" glyph-name="six" horiz-adv-x="1228" d="M911 1229V1413H727V1229H911ZM707 1229V1413H522V1229H707ZM502 1024V1208H317V1024H502ZM911 614V799H727V614H911ZM1116 410V594H932V410H1116ZM707 614V799H522V614H707ZM1116 205V389H932V205H1116ZM297
819V1004H113V819H297ZM502 614V799H317V614H502ZM297 614V799H113V614H297ZM911 0V184H727V0H911ZM297 410V594H113V410H297ZM707 0V184H522V0H707ZM297 205V389H113V205H297ZM502 0V184H317V0H502Z" />
<glyph unicode="7" glyph-name="seven" horiz-adv-x="1228" d="M1116 1229V1413H932V1229H1116ZM911 1229V1413H727V1229H911ZM1116 1024V1208H932V1024H1116ZM707 1229V1413H522V1229H707ZM502 1229V1413H317V1229H502ZM911 819V1004H727V819H911ZM297 1229V1413H113V1229H297ZM707
614V799H522V614H707ZM502 410V594H317V410H502ZM502 205V389H317V205H502ZM502 0V184H317V0H502Z" />
<glyph unicode="8" glyph-name="eight" horiz-adv-x="1228" d="M911 1229V1413H727V1229H911ZM1116 1024V1208H932V1024H1116ZM707 1229V1413H522V1229H707ZM1116 819V1004H932V819H1116ZM502 1229V1413H317V1229H502ZM911 614V799H727V614H911ZM1116 410V594H932V410H1116ZM297
1024V1208H113V1024H297ZM707 614V799H522V614H707ZM1116 205V389H932V205H1116ZM297 819V1004H113V819H297ZM502 614V799H317V614H502ZM911 0V184H727V0H911ZM297 410V594H113V410H297ZM707 0V184H522V0H707ZM297 205V389H113V205H297ZM502 0V184H317V0H502Z"
/>
<glyph unicode="9" glyph-name="nine" horiz-adv-x="1228" d="M911 1229V1413H727V1229H911ZM1116 1024V1208H932V1024H1116ZM707 1229V1413H522V1229H707ZM1116 819V1004H932V819H1116ZM502 1229V1413H317V1229H502ZM1116 614V799H932V614H1116ZM911 614V799H727V614H911ZM1116
410V594H932V410H1116ZM297 1024V1208H113V1024H297ZM707 614V799H522V614H707ZM297 819V1004H113V819H297ZM502 614V799H317V614H502ZM911 205V389H727V205H911ZM707 0V184H522V0H707ZM502 0V184H317V0H502Z" />
<glyph unicode=":" glyph-name="colon" horiz-adv-x="1228" d="M707 1024V1208H522V1024H707ZM502 1024V1208H317V1024H502ZM707 819V1004H522V819H707ZM502 819V1004H317V819H502ZM707 410V594H522V410H707ZM502 410V594H317V410H502ZM707 205V389H522V205H707ZM502
205V389H317V205H502Z" />
<glyph unicode=";" glyph-name="semicolon" horiz-adv-x="1228" d="M707 1024V1208H522V1024H707ZM502 1024V1208H317V1024H502ZM707 819V1004H522V819H707ZM502 819V1004H317V819H502ZM707 410V594H522V410H707ZM502 410V594H317V410H502ZM707 205V389H522V205H707ZM502
0V184H317V0H502Z" />
<glyph unicode="&lt;" glyph-name="less" horiz-adv-x="1228" d="M911 1229V1413H727V1229H911ZM707 1024V1208H522V1024H707ZM502 819V1004H317V819H502ZM297 614V799H113V614H297ZM502 410V594H317V410H502ZM707 205V389H522V205H707ZM911 0V184H727V0H911Z" />
<glyph unicode="=" glyph-name="equal" horiz-adv-x="1228" d="M1116 819V1004H932V819H1116ZM911 819V1004H727V819H911ZM707 819V1004H522V819H707ZM1116 410V594H932V410H1116ZM502 819V1004H317V819H502ZM911 410V594H727V410H911ZM297 819V1004H113V819H297ZM707
410V594H522V410H707ZM502 410V594H317V410H502ZM297 410V594H113V410H297Z" />
<glyph unicode="&gt;" glyph-name="greater" horiz-adv-x="1228" d="M502 1229V1413H317V1229H502ZM707 1024V1208H522V1024H707ZM911 819V1004H727V819H911ZM1116 614V799H932V614H1116ZM911 410V594H727V410H911ZM707 205V389H522V205H707ZM502 0V184H317V0H502Z" />
<glyph unicode="?" glyph-name="question" horiz-adv-x="1228" d="M911 1229V1413H727V1229H911ZM1116 1024V1208H932V1024H1116ZM707 1229V1413H522V1229H707ZM1116 819V1004H932V819H1116ZM502 1229V1413H317V1229H502ZM911 614V799H727V614H911ZM297 1024V1208H113V1024H297ZM707
410V594H522V410H707ZM707 0V184H522V0H707Z" />
<glyph unicode="@" glyph-name="at" horiz-adv-x="1228" d="M911 1229V1413H727V1229H911ZM1116 1024V1208H932V1024H1116ZM707 1229V1413H522V1229H707ZM1116 819V1004H932V819H1116ZM502 1229V1413H317V1229H502ZM1116 614V799H932V614H1116ZM1116 410V594H932V410H1116ZM297
1024V1208H113V1024H297ZM707 614V799H522V614H707ZM1116 205V389H932V205H1116ZM502 614V799H317V614H502ZM707 410V594H522V410H707ZM707 205V389H522V205H707ZM911 0V184H727V0H911ZM297 410V594H113V410H297ZM707 0V184H522V0H707ZM297 205V389H113V205H297ZM502
0V184H317V0H502Z" />
<glyph unicode="A" glyph-name="A" horiz-adv-x="1228" d="M911 1229V1413H727V1229H911ZM1116 1024V1208H932V1024H1116ZM707 1229V1413H522V1229H707ZM1116 819V1004H932V819H1116ZM502 1229V1413H317V1229H502ZM1116 614V799H932V614H1116ZM1116 410V594H932V410H1116ZM297
1024V1208H113V1024H297ZM911 410V594H727V410H911ZM1116 205V389H932V205H1116ZM297 819V1004H113V819H297ZM707 410V594H522V410H707ZM1116 0V184H932V0H1116ZM297 614V799H113V614H297ZM502 410V594H317V410H502ZM297 410V594H113V410H297ZM297 205V389H113V205H297ZM297
0V184H113V0H297Z" />
<glyph unicode="B" glyph-name="B" horiz-adv-x="1228" d="M911 1229V1413H727V1229H911ZM1116 1024V1208H932V1024H1116ZM707 1229V1413H522V1229H707ZM1116 819V1004H932V819H1116ZM502 1229V1413H317V1229H502ZM297 1229V1413H113V1229H297ZM911 614V799H727V614H911ZM1116
410V594H932V410H1116ZM297 1024V1208H113V1024H297ZM707 614V799H522V614H707ZM1116 205V389H932V205H1116ZM297 819V1004H113V819H297ZM502 614V799H317V614H502ZM297 614V799H113V614H297ZM911 0V184H727V0H911ZM297 410V594H113V410H297ZM707 0V184H522V0H707ZM297
205V389H113V205H297ZM502 0V184H317V0H502ZM297 0V184H113V0H297Z" />
<glyph unicode="C" glyph-name="C" horiz-adv-x="1228" d="M911 1229V1413H727V1229H911ZM1116 1024V1208H932V1024H1116ZM707 1229V1413H522V1229H707ZM502 1229V1413H317V1229H502ZM297 1024V1208H113V1024H297ZM1116 205V389H932V205H1116ZM297 819V1004H113V819H297ZM297
614V799H113V614H297ZM911 0V184H727V0H911ZM297 410V594H113V410H297ZM707 0V184H522V0H707ZM297 205V389H113V205H297ZM502 0V184H317V0H502Z" />
<glyph unicode="D" glyph-name="D" horiz-adv-x="1228" d="M911 1229V1413H727V1229H911ZM1116 1024V1208H932V1024H1116ZM707 1229V1413H522V1229H707ZM1116 819V1004H932V819H1116ZM502 1229V1413H317V1229H502ZM1116 614V799H932V614H1116ZM297 1229V1413H113V1229H297ZM1116
410V594H932V410H1116ZM297 1024V1208H113V1024H297ZM1116 205V389H932V205H1116ZM297 819V1004H113V819H297ZM297 614V799H113V614H297ZM911 0V184H727V0H911ZM297 410V594H113V410H297ZM707 0V184H522V0H707ZM297 205V389H113V205H297ZM502 0V184H317V0H502ZM297
0V184H113V0H297Z" />
<glyph unicode="E" glyph-name="E" horiz-adv-x="1228" d="M1116 1229V1413H932V1229H1116ZM911 1229V1413H727V1229H911ZM707 1229V1413H522V1229H707ZM502 1229V1413H317V1229H502ZM297 1229V1413H113V1229H297ZM911 614V799H727V614H911ZM297 1024V1208H113V1024H297ZM707
614V799H522V614H707ZM297 819V1004H113V819H297ZM502 614V799H317V614H502ZM1116 0V184H932V0H1116ZM297 614V799H113V614H297ZM911 0V184H727V0H911ZM297 410V594H113V410H297ZM707 0V184H522V0H707ZM297 205V389H113V205H297ZM502 0V184H317V0H502ZM297 0V184H113V0H297Z"
/>
<glyph unicode="F" glyph-name="F" horiz-adv-x="1228" d="M1116 1229V1413H932V1229H1116ZM911 1229V1413H727V1229H911ZM707 1229V1413H522V1229H707ZM502 1229V1413H317V1229H502ZM297 1229V1413H113V1229H297ZM911 614V799H727V614H911ZM297 1024V1208H113V1024H297ZM707
614V799H522V614H707ZM297 819V1004H113V819H297ZM502 614V799H317V614H502ZM297 614V799H113V614H297ZM297 410V594H113V410H297ZM297 205V389H113V205H297ZM297 0V184H113V0H297Z" />
<glyph unicode="G" glyph-name="G" horiz-adv-x="1228" d="M911 1229V1413H727V1229H911ZM1116 1024V1208H932V1024H1116ZM707 1229V1413H522V1229H707ZM502 1229V1413H317V1229H502ZM1116 614V799H932V614H1116ZM911 614V799H727V614H911ZM1116 410V594H932V410H1116ZM297
1024V1208H113V1024H297ZM707 614V799H522V614H707ZM1116 205V389H932V205H1116ZM297 819V1004H113V819H297ZM1116 0V184H932V0H1116ZM297 614V799H113V614H297ZM911 0V184H727V0H911ZM297 410V594H113V410H297ZM707 0V184H522V0H707ZM297 205V389H113V205H297ZM502
0V184H317V0H502Z" />
<glyph unicode="H" glyph-name="H" horiz-adv-x="1228" d="M1116 1229V1413H932V1229H1116ZM1116 1024V1208H932V1024H1116ZM1116 819V1004H932V819H1116ZM1116 614V799H932V614H1116ZM297 1229V1413H113V1229H297ZM911 614V799H727V614H911ZM1116 410V594H932V410H1116ZM297
1024V1208H113V1024H297ZM707 614V799H522V614H707ZM1116 205V389H932V205H1116ZM297 819V1004H113V819H297ZM502 614V799H317V614H502ZM1116 0V184H932V0H1116ZM297 614V799H113V614H297ZM297 410V594H113V410H297ZM297 205V389H113V205H297ZM297 0V184H113V0H297Z"
/>
<glyph unicode="I" glyph-name="I" horiz-adv-x="1228" d="M911 1229V1413H727V1229H911ZM707 1229V1413H522V1229H707ZM502 1229V1413H317V1229H502ZM707 1024V1208H522V1024H707ZM707 819V1004H522V819H707ZM707 614V799H522V614H707ZM707 410V594H522V410H707ZM707
205V389H522V205H707ZM911 0V184H727V0H911ZM707 0V184H522V0H707ZM502 0V184H317V0H502Z" />
<glyph unicode="J" glyph-name="J" horiz-adv-x="1228" d="M1116 1229V1413H932V1229H1116ZM911 1229V1413H727V1229H911ZM707 1229V1413H522V1229H707ZM911 1024V1208H727V1024H911ZM911 819V1004H727V819H911ZM911 614V799H727V614H911ZM911 410V594H727V410H911ZM911
205V389H727V205H911ZM707 0V184H522V0H707ZM297 205V389H113V205H297ZM502 0V184H317V0H502Z" />
<glyph unicode="K" glyph-name="K" horiz-adv-x="1228" d="M1116 1229V1413H932V1229H1116ZM911 1024V1208H727V1024H911ZM297 1229V1413H113V1229H297ZM707 819V1004H522V819H707ZM297 1024V1208H113V1024H297ZM297 819V1004H113V819H297ZM502 614V799H317V614H502ZM707
410V594H522V410H707ZM911 205V389H727V205H911ZM1116 0V184H932V0H1116ZM297 614V799H113V614H297ZM297 410V594H113V410H297ZM297 205V389H113V205H297ZM297 0V184H113V0H297Z" />
<glyph unicode="L" glyph-name="L" horiz-adv-x="1228" d="M297 1229V1413H113V1229H297ZM297 1024V1208H113V1024H297ZM297 819V1004H113V819H297ZM1116 0V184H932V0H1116ZM297 614V799H113V614H297ZM911 0V184H727V0H911ZM297 410V594H113V410H297ZM707 0V184H522V0H707ZM297
205V389H113V205H297ZM502 0V184H317V0H502ZM297 0V184H113V0H297Z" />
<glyph unicode="M" glyph-name="M" horiz-adv-x="1228" d="M1116 1229V1413H932V1229H1116ZM1116 1024V1208H932V1024H1116ZM911 1024V1208H727V1024H911ZM1116 819V1004H932V819H1116ZM1116 614V799H932V614H1116ZM297 1229V1413H113V1229H297ZM502 1024V1208H317V1024H502ZM707
819V1004H522V819H707ZM1116 410V594H932V410H1116ZM297 1024V1208H113V1024H297ZM707 614V799H522V614H707ZM1116 205V389H932V205H1116ZM297 819V1004H113V819H297ZM1116 0V184H932V0H1116ZM297 614V799H113V614H297ZM297 410V594H113V410H297ZM297 205V389H113V205H297ZM297
0V184H113V0H297Z" />
<glyph unicode="N" glyph-name="N" horiz-adv-x="1228" d="M1116 1229V1413H932V1229H1116ZM1116 1024V1208H932V1024H1116ZM1116 819V1004H932V819H1116ZM1116 614V799H932V614H1116ZM297 1229V1413H113V1229H297ZM1116 410V594H932V410H1116ZM297 1024V1208H113V1024H297ZM502
819V1004H317V819H502ZM707 614V799H522V614H707ZM911 410V594H727V410H911ZM1116 205V389H932V205H1116ZM297 819V1004H113V819H297ZM1116 0V184H932V0H1116ZM297 614V799H113V614H297ZM297 410V594H113V410H297ZM297 205V389H113V205H297ZM297 0V184H113V0H297Z"
/>
<glyph unicode="O" glyph-name="O" horiz-adv-x="1228" d="M911 1229V1413H727V1229H911ZM1116 1024V1208H932V1024H1116ZM707 1229V1413H522V1229H707ZM1116 819V1004H932V819H1116ZM502 1229V1413H317V1229H502ZM1116 614V799H932V614H1116ZM1116 410V594H932V410H1116ZM297
1024V1208H113V1024H297ZM1116 205V389H932V205H1116ZM297 819V1004H113V819H297ZM297 614V799H113V614H297ZM911 0V184H727V0H911ZM297 410V594H113V410H297ZM707 0V184H522V0H707ZM297 205V389H113V205H297ZM502 0V184H317V0H502Z" />
<glyph unicode="P" glyph-name="P" horiz-adv-x="1228" d="M911 1229V1413H727V1229H911ZM1116 1024V1208H932V1024H1116ZM707 1229V1413H522V1229H707ZM1116 819V1004H932V819H1116ZM502 1229V1413H317V1229H502ZM297 1229V1413H113V1229H297ZM911 614V799H727V614H911ZM297
1024V1208H113V1024H297ZM707 614V799H522V614H707ZM297 819V1004H113V819H297ZM502 614V799H317V614H502ZM297 614V799H113V614H297ZM297 410V594H113V410H297ZM297 205V389H113V205H297ZM297 0V184H113V0H297Z" />
<glyph unicode="Q" glyph-name="Q" horiz-adv-x="1228" d="M911 1229V1413H727V1229H911ZM1116 1024V1208H932V1024H1116ZM707 1229V1413H522V1229H707ZM1116 819V1004H932V819H1116ZM502 1229V1413H317V1229H502ZM1116 614V799H932V614H1116ZM1116 410V594H932V410H1116ZM297
1024V1208H113V1024H297ZM297 819V1004H113V819H297ZM707 410V594H522V410H707ZM911 205V389H727V205H911ZM1116 0V184H932V0H1116ZM297 614V799H113V614H297ZM297 410V594H113V410H297ZM707 0V184H522V0H707ZM297 205V389H113V205H297ZM502 0V184H317V0H502Z"
/>
<glyph unicode="R" glyph-name="R" horiz-adv-x="1228" d="M911 1229V1413H727V1229H911ZM1116 1024V1208H932V1024H1116ZM707 1229V1413H522V1229H707ZM1116 819V1004H932V819H1116ZM502 1229V1413H317V1229H502ZM297 1229V1413H113V1229H297ZM911 614V799H727V614H911ZM297
1024V1208H113V1024H297ZM707 614V799H522V614H707ZM297 819V1004H113V819H297ZM502 614V799H317V614H502ZM707 410V594H522V410H707ZM911 205V389H727V205H911ZM1116 0V184H932V0H1116ZM297 614V799H113V614H297ZM297 410V594H113V410H297ZM297 205V389H113V205H297ZM297
0V184H113V0H297Z" />
<glyph unicode="S" glyph-name="S" horiz-adv-x="1228" d="M1116 1229V1413H932V1229H1116ZM911 1229V1413H727V1229H911ZM707 1229V1413H522V1229H707ZM502 1229V1413H317V1229H502ZM911 614V799H727V614H911ZM1116 410V594H932V410H1116ZM297 1024V1208H113V1024H297ZM707
614V799H522V614H707ZM1116 205V389H932V205H1116ZM297 819V1004H113V819H297ZM502 614V799H317V614H502ZM911 0V184H727V0H911ZM707 0V184H522V0H707ZM502 0V184H317V0H502ZM297 0V184H113V0H297Z" />
<glyph unicode="T" glyph-name="T" horiz-adv-x="1228" d="M1116 1229V1413H932V1229H1116ZM911 1229V1413H727V1229H911ZM707 1229V1413H522V1229H707ZM502 1229V1413H317V1229H502ZM707 1024V1208H522V1024H707ZM297 1229V1413H113V1229H297ZM707 819V1004H522V819H707ZM707
614V799H522V614H707ZM707 410V594H522V410H707ZM707 205V389H522V205H707ZM707 0V184H522V0H707Z" />
<glyph unicode="U" glyph-name="U" horiz-adv-x="1228" d="M1116 1229V1413H932V1229H1116ZM1116 1024V1208H932V1024H1116ZM1116 819V1004H932V819H1116ZM1116 614V799H932V614H1116ZM297 1229V1413H113V1229H297ZM1116 410V594H932V410H1116ZM297 1024V1208H113V1024H297ZM1116
205V389H932V205H1116ZM297 819V1004H113V819H297ZM297 614V799H113V614H297ZM911 0V184H727V0H911ZM297 410V594H113V410H297ZM707 0V184H522V0H707ZM297 205V389H113V205H297ZM502 0V184H317V0H502Z" />
<glyph unicode="V" glyph-name="V" horiz-adv-x="1228" d="M1116 1229V1413H932V1229H1116ZM1116 1024V1208H932V1024H1116ZM1116 819V1004H932V819H1116ZM1116 614V799H932V614H1116ZM297 1229V1413H113V1229H297ZM1116 410V594H932V410H1116ZM297 1024V1208H113V1024H297ZM297
819V1004H113V819H297ZM911 205V389H727V205H911ZM297 614V799H113V614H297ZM297 410V594H113V410H297ZM502 205V389H317V205H502ZM707 0V184H522V0H707Z" />
<glyph unicode="W" glyph-name="W" horiz-adv-x="1228" d="M1116 1229V1413H932V1229H1116ZM1116 1024V1208H932V1024H1116ZM1116 819V1004H932V819H1116ZM1116 614V799H932V614H1116ZM297 1229V1413H113V1229H297ZM1116 410V594H932V410H1116ZM297 1024V1208H113V1024H297ZM707
614V799H522V614H707ZM1116 205V389H932V205H1116ZM297 819V1004H113V819H297ZM707 410V594H522V410H707ZM297 614V799H113V614H297ZM707 205V389H522V205H707ZM911 0V184H727V0H911ZM297 410V594H113V410H297ZM297 205V389H113V205H297ZM502 0V184H317V0H502Z"
/>
<glyph unicode="X" glyph-name="X" horiz-adv-x="1228" d="M1116 1229V1413H932V1229H1116ZM1116 1024V1208H932V1024H1116ZM911 819V1004H727V819H911ZM297 1229V1413H113V1229H297ZM297 1024V1208H113V1024H297ZM502 819V1004H317V819H502ZM707 614V799H522V614H707ZM911
410V594H727V410H911ZM1116 205V389H932V205H1116ZM1116 0V184H932V0H1116ZM502 410V594H317V410H502ZM297 205V389H113V205H297ZM297 0V184H113V0H297Z" />
<glyph unicode="Y" glyph-name="Y" horiz-adv-x="1228" d="M1116 1229V1413H932V1229H1116ZM1116 1024V1208H932V1024H1116ZM1116 819V1004H932V819H1116ZM297 1229V1413H113V1229H297ZM911 614V799H727V614H911ZM297 1024V1208H113V1024H297ZM297 819V1004H113V819H297ZM502
614V799H317V614H502ZM707 410V594H522V410H707ZM707 205V389H522V205H707ZM707 0V184H522V0H707Z" />
<glyph unicode="Z" glyph-name="Z" horiz-adv-x="1228" d="M1116 1229V1413H932V1229H1116ZM911 1229V1413H727V1229H911ZM1116 1024V1208H932V1024H1116ZM707 1229V1413H522V1229H707ZM502 1229V1413H317V1229H502ZM911 819V1004H727V819H911ZM297 1229V1413H113V1229H297ZM707
614V799H522V614H707ZM1116 0V184H932V0H1116ZM502 410V594H317V410H502ZM911 0V184H727V0H911ZM707 0V184H522V0H707ZM297 205V389H113V205H297ZM502 0V184H317V0H502ZM297 0V184H113V0H297Z" />
<glyph unicode="[" glyph-name="bracketleft" horiz-adv-x="1228" d="M911 1229V1413H727V1229H911ZM707 1229V1413H522V1229H707ZM707 1024V1208H522V1024H707ZM707 819V1004H522V819H707ZM707 614V799H522V614H707ZM707 410V594H522V410H707ZM707 205V389H522V205H707ZM911
0V184H727V0H911ZM707 0V184H522V0H707Z" />
<glyph unicode="\" glyph-name="backslash" horiz-adv-x="1228" d="M297 1024V1208H113V1024H297ZM502 819V1004H317V819H502ZM707 614V799H522V614H707ZM911 410V594H727V410H911ZM1116 205V389H932V205H1116Z" />
<glyph unicode="]" glyph-name="bracketright" horiz-adv-x="1228" d="M911 1229V1413H727V1229H911ZM707 1229V1413H522V1229H707ZM911 1024V1208H727V1024H911ZM911 819V1004H727V819H911ZM911 614V799H727V614H911ZM911 410V594H727V410H911ZM911 205V389H727V205H911ZM911
0V184H727V0H911ZM707 0V184H522V0H707Z" />
<glyph unicode="^" glyph-name="asciicircum" horiz-adv-x="1228" d="M707 1229V1413H522V1229H707ZM911 1024V1208H727V1024H911ZM1116 819V1004H932V819H1116ZM502 1024V1208H317V1024H502ZM297 819V1004H113V819H297Z" />
<glyph unicode="_" glyph-name="underscore" horiz-adv-x="1228" d="M1116 0V184H932V0H1116ZM911 0V184H727V0H911ZM707 0V184H522V0H707ZM502 0V184H317V0H502ZM297 0V184H113V0H297Z" />
<glyph unicode="`" glyph-name="grave" horiz-adv-x="1228" d="M502 1229V1413H317V1229H502ZM707 1024V1208H522V1024H707Z" />
<glyph unicode="a" glyph-name="a" horiz-adv-x="1228" d="M911 819V1004H727V819H911ZM1116 614V799H932V614H1116ZM707 819V1004H522V819H707ZM1116 410V594H932V410H1116ZM502 819V1004H317V819H502ZM911 410V594H727V410H911ZM1116 205V389H932V205H1116ZM707
410V594H522V410H707ZM1116 0V184H932V0H1116ZM502 410V594H317V410H502ZM911 0V184H727V0H911ZM707 0V184H522V0H707ZM297 205V389H113V205H297ZM502 0V184H317V0H502Z" />
<glyph unicode="b" glyph-name="b" horiz-adv-x="1228" d="M911 819V1004H727V819H911ZM1116 614V799H932V614H1116ZM297 1229V1413H113V1229H297ZM707 819V1004H522V819H707ZM1116 410V594H932V410H1116ZM297 1024V1208H113V1024H297ZM1116 205V389H932V205H1116ZM297
819V1004H113V819H297ZM502 614V799H317V614H502ZM297 614V799H113V614H297ZM911 0V184H727V0H911ZM297 410V594H113V410H297ZM707 0V184H522V0H707ZM297 205V389H113V205H297ZM502 0V184H317V0H502ZM297 0V184H113V0H297Z" />
<glyph unicode="c" glyph-name="c" horiz-adv-x="1228" d="M911 819V1004H727V819H911ZM707 819V1004H522V819H707ZM502 819V1004H317V819H502ZM1116 205V389H932V205H1116ZM297 614V799H113V614H297ZM911 0V184H727V0H911ZM297 410V594H113V410H297ZM707 0V184H522V0H707ZM297
205V389H113V205H297ZM502 0V184H317V0H502Z" />
<glyph unicode="d" glyph-name="d" horiz-adv-x="1228" d="M1116 1229V1413H932V1229H1116ZM1116 1024V1208H932V1024H1116ZM1116 819V1004H932V819H1116ZM1116 614V799H932V614H1116ZM707 819V1004H522V819H707ZM911 614V799H727V614H911ZM1116 410V594H932V410H1116ZM502
819V1004H317V819H502ZM1116 205V389H932V205H1116ZM1116 0V184H932V0H1116ZM297 614V799H113V614H297ZM911 0V184H727V0H911ZM297 410V594H113V410H297ZM707 0V184H522V0H707ZM297 205V389H113V205H297ZM502 0V184H317V0H502Z" />
<glyph unicode="e" glyph-name="e" horiz-adv-x="1228" d="M911 819V1004H727V819H911ZM1116 614V799H932V614H1116ZM707 819V1004H522V819H707ZM1116 410V594H932V410H1116ZM502 819V1004H317V819H502ZM911 410V594H727V410H911ZM707 410V594H522V410H707ZM297
614V799H113V614H297ZM502 410V594H317V410H502ZM911 0V184H727V0H911ZM297 410V594H113V410H297ZM707 0V184H522V0H707ZM297 205V389H113V205H297ZM502 0V184H317V0H502Z" />
<glyph unicode="f" glyph-name="f" horiz-adv-x="1228" d="M911 1229V1413H727V1229H911ZM1116 1024V1208H932V1024H1116ZM707 1024V1208H522V1024H707ZM707 819V1004H522V819H707ZM911 614V799H727V614H911ZM707 614V799H522V614H707ZM502 614V799H317V614H502ZM707
410V594H522V410H707ZM707 205V389H522V205H707ZM707 0V184H522V0H707Z" />
<glyph unicode="g" glyph-name="g" horiz-adv-x="1228" d="M1116 819V1004H932V819H1116ZM911 819V1004H727V819H911ZM1116 614V799H932V614H1116ZM707 819V1004H522V819H707ZM1116 410V594H932V410H1116ZM502 819V1004H317V819H502ZM911 410V594H727V410H911ZM1116
205V389H932V205H1116ZM707 410V594H522V410H707ZM297 614V799H113V614H297ZM502 410V594H317V410H502ZM911 0V184H727V0H911ZM707 0V184H522V0H707ZM502 0V184H317V0H502Z" />
<glyph unicode="h" glyph-name="h" horiz-adv-x="1228" d="M911 819V1004H727V819H911ZM1116 614V799H932V614H1116ZM297 1229V1413H113V1229H297ZM707 819V1004H522V819H707ZM1116 410V594H932V410H1116ZM297 1024V1208H113V1024H297ZM1116 205V389H932V205H1116ZM297
819V1004H113V819H297ZM502 614V799H317V614H502ZM1116 0V184H932V0H1116ZM297 614V799H113V614H297ZM297 410V594H113V410H297ZM297 205V389H113V205H297ZM297 0V184H113V0H297Z" />
<glyph unicode="i" glyph-name="i" horiz-adv-x="1228" d="M707 1229V1413H522V1229H707ZM707 819V1004H522V819H707ZM502 819V1004H317V819H502ZM707 614V799H522V614H707ZM707 410V594H522V410H707ZM707 205V389H522V205H707ZM911 0V184H727V0H911ZM707 0V184H522V0H707ZM502
0V184H317V0H502Z" />
<glyph unicode="j" glyph-name="j" horiz-adv-x="1228" d="M911 1229V1413H727V1229H911ZM911 819V1004H727V819H911ZM707 819V1004H522V819H707ZM911 614V799H727V614H911ZM911 410V594H727V410H911ZM911 205V389H727V205H911ZM707 0V184H522V0H707ZM297 205V389H113V205H297ZM502
0V184H317V0H502Z" />
<glyph unicode="k" glyph-name="k" horiz-adv-x="1228" d="M911 819V1004H727V819H911ZM297 1229V1413H113V1229H297ZM297 1024V1208H113V1024H297ZM707 614V799H522V614H707ZM297 819V1004H113V819H297ZM297 614V799H113V614H297ZM502 410V594H317V410H502ZM707
205V389H522V205H707ZM911 0V184H727V0H911ZM297 410V594H113V410H297ZM297 205V389H113V205H297ZM297 0V184H113V0H297Z" />
<glyph unicode="l" glyph-name="l" horiz-adv-x="1228" d="M707 1229V1413H522V1229H707ZM502 1229V1413H317V1229H502ZM707 1024V1208H522V1024H707ZM707 819V1004H522V819H707ZM707 614V799H522V614H707ZM707 410V594H522V410H707ZM707 205V389H522V205H707ZM911
0V184H727V0H911ZM707 0V184H522V0H707ZM502 0V184H317V0H502Z" />
<glyph unicode="m" glyph-name="m" horiz-adv-x="1228" d="M911 819V1004H727V819H911ZM1116 614V799H932V614H1116ZM1116 410V594H932V410H1116ZM502 819V1004H317V819H502ZM707 614V799H522V614H707ZM1116 205V389H932V205H1116ZM297 819V1004H113V819H297ZM707
410V594H522V410H707ZM1116 0V184H932V0H1116ZM297 614V799H113V614H297ZM707 205V389H522V205H707ZM297 410V594H113V410H297ZM707 0V184H522V0H707ZM297 205V389H113V205H297ZM297 0V184H113V0H297Z" />
<glyph unicode="n" glyph-name="n" horiz-adv-x="1228" d="M911 819V1004H727V819H911ZM1116 614V799H932V614H1116ZM707 819V1004H522V819H707ZM1116 410V594H932V410H1116ZM1116 205V389H932V205H1116ZM297 819V1004H113V819H297ZM502 614V799H317V614H502ZM1116
0V184H932V0H1116ZM297 614V799H113V614H297ZM297 410V594H113V410H297ZM297 205V389H113V205H297ZM297 0V184H113V0H297Z" />
<glyph unicode="o" glyph-name="o" horiz-adv-x="1228" d="M911 819V1004H727V819H911ZM1116 614V799H932V614H1116ZM707 819V1004H522V819H707ZM1116 410V594H932V410H1116ZM502 819V1004H317V819H502ZM1116 205V389H932V205H1116ZM297 614V799H113V614H297ZM911
0V184H727V0H911ZM297 410V594H113V410H297ZM707 0V184H522V0H707ZM297 205V389H113V205H297ZM502 0V184H317V0H502Z" />
<glyph unicode="p" glyph-name="p" horiz-adv-x="1228" d="M911 819V1004H727V819H911ZM1116 614V799H932V614H1116ZM707 819V1004H522V819H707ZM502 819V1004H317V819H502ZM911 410V594H727V410H911ZM297 819V1004H113V819H297ZM707 410V594H522V410H707ZM297
614V799H113V614H297ZM502 410V594H317V410H502ZM297 410V594H113V410H297ZM297 205V389H113V205H297ZM297 0V184H113V0H297Z" />
<glyph unicode="q" glyph-name="q" horiz-adv-x="1228" d="M1116 819V1004H932V819H1116ZM911 819V1004H727V819H911ZM1116 614V799H932V614H1116ZM707 819V1004H522V819H707ZM1116 410V594H932V410H1116ZM502 819V1004H317V819H502ZM911 410V594H727V410H911ZM1116
205V389H932V205H1116ZM707 410V594H522V410H707ZM1116 0V184H932V0H1116ZM297 614V799H113V614H297ZM502 410V594H317V410H502Z" />
<glyph unicode="r" glyph-name="r" horiz-adv-x="1228" d="M911 819V1004H727V819H911ZM1116 614V799H932V614H1116ZM707 819V1004H522V819H707ZM297 819V1004H113V819H297ZM502 614V799H317V614H502ZM297 614V799H113V614H297ZM297 410V594H113V410H297ZM297
205V389H113V205H297ZM297 0V184H113V0H297Z" />
<glyph unicode="s" glyph-name="s" horiz-adv-x="1228" d="M911 819V1004H727V819H911ZM707 819V1004H522V819H707ZM502 819V1004H317V819H502ZM911 410V594H727V410H911ZM1116 205V389H932V205H1116ZM707 410V594H522V410H707ZM297 614V799H113V614H297ZM502
410V594H317V410H502ZM911 0V184H727V0H911ZM707 0V184H522V0H707ZM502 0V184H317V0H502ZM297 0V184H113V0H297Z" />
<glyph unicode="t" glyph-name="t" horiz-adv-x="1228" d="M707 1229V1413H522V1229H707ZM707 1024V1208H522V1024H707ZM911 819V1004H727V819H911ZM707 819V1004H522V819H707ZM502 819V1004H317V819H502ZM707 614V799H522V614H707ZM1116 205V389H932V205H1116ZM707
410V594H522V410H707ZM707 205V389H522V205H707ZM911 0V184H727V0H911Z" />
<glyph unicode="u" glyph-name="u" horiz-adv-x="1228" d="M1116 819V1004H932V819H1116ZM1116 614V799H932V614H1116ZM1116 410V594H932V410H1116ZM1116 205V389H932V205H1116ZM297 819V1004H113V819H297ZM911 205V389H727V205H911ZM1116 0V184H932V0H1116ZM297
614V799H113V614H297ZM297 410V594H113V410H297ZM707 0V184H522V0H707ZM297 205V389H113V205H297ZM502 0V184H317V0H502Z" />
<glyph unicode="v" glyph-name="v" horiz-adv-x="1228" d="M1116 819V1004H932V819H1116ZM1116 614V799H932V614H1116ZM1116 410V594H932V410H1116ZM297 819V1004H113V819H297ZM911 205V389H727V205H911ZM297 614V799H113V614H297ZM297 410V594H113V410H297ZM502
205V389H317V205H502ZM707 0V184H522V0H707Z" />
<glyph unicode="w" glyph-name="w" horiz-adv-x="1228" d="M1116 819V1004H932V819H1116ZM1116 614V799H932V614H1116ZM1116 410V594H932V410H1116ZM1116 205V389H932V205H1116ZM297 819V1004H113V819H297ZM707 410V594H522V410H707ZM297 614V799H113V614H297ZM707
205V389H522V205H707ZM911 0V184H727V0H911ZM297 410V594H113V410H297ZM297 205V389H113V205H297ZM502 0V184H317V0H502Z" />
<glyph unicode="x" glyph-name="x" horiz-adv-x="1228" d="M1116 819V1004H932V819H1116ZM911 614V799H727V614H911ZM297 819V1004H113V819H297ZM502 614V799H317V614H502ZM707 410V594H522V410H707ZM911 205V389H727V205H911ZM1116 0V184H932V0H1116ZM502 205V389H317V205H502ZM297
0V184H113V0H297Z" />
<glyph unicode="y" glyph-name="y" horiz-adv-x="1228" d="M1116 819V1004H932V819H1116ZM1116 614V799H932V614H1116ZM1116 410V594H932V410H1116ZM911 410V594H727V410H911ZM1116 205V389H932V205H1116ZM297 819V1004H113V819H297ZM707 410V594H522V410H707ZM297
614V799H113V614H297ZM502 410V594H317V410H502ZM911 0V184H727V0H911ZM707 0V184H522V0H707ZM502 0V184H317V0H502Z" />
<glyph unicode="z" glyph-name="z" horiz-adv-x="1228" d="M1116 819V1004H932V819H1116ZM911 819V1004H727V819H911ZM707 819V1004H522V819H707ZM911 614V799H727V614H911ZM502 819V1004H317V819H502ZM297 819V1004H113V819H297ZM707 410V594H522V410H707ZM1116
0V184H932V0H1116ZM911 0V184H727V0H911ZM502 205V389H317V205H502ZM707 0V184H522V0H707ZM502 0V184H317V0H502ZM297 0V184H113V0H297Z" />
<glyph unicode="{" glyph-name="braceleft" horiz-adv-x="1228" d="M1116 1229V1413H932V1229H1116ZM911 1229V1413H727V1229H911ZM707 1024V1208H522V1024H707ZM707 819V1004H522V819H707ZM502 614V799H317V614H502ZM707 410V594H522V410H707ZM1116 0V184H932V0H1116ZM297
614V799H113V614H297ZM707 205V389H522V205H707ZM911 0V184H727V0H911Z" />
<glyph unicode="|" glyph-name="bar" horiz-adv-x="1228" d="M707 1229V1413H522V1229H707ZM707 1024V1208H522V1024H707ZM707 819V1004H522V819H707ZM707 614V799H522V614H707ZM707 410V594H522V410H707ZM707 205V389H522V205H707ZM707 0V184H522V0H707Z" />
<glyph unicode="}" glyph-name="braceright" horiz-adv-x="1228" d="M502 1229V1413H317V1229H502ZM707 1024V1208H522V1024H707ZM1116 614V799H932V614H1116ZM297 1229V1413H113V1229H297ZM707 819V1004H522V819H707ZM911 614V799H727V614H911ZM707 410V594H522V410H707ZM707
205V389H522V205H707ZM502 0V184H317V0H502ZM297 0V184H113V0H297Z" />
<glyph unicode="~" glyph-name="asciitilde" horiz-adv-x="1228" d="M1116 1229V1413H932V1229H1116ZM911 1024V1208H727V1024H911ZM502 1229V1413H317V1229H502ZM707 1024V1208H522V1024H707ZM297 1024V1208H113V1024H297Z" />
</font>
</defs>
</svg>
